<mxfile host="Electron" modified="2024-04-20T07:02:31.288Z" agent="Mozilla/5.0 (Windows NT 10.0; Win64; x64) AppleWebKit/537.36 (KHTML, like Gecko) draw.io/24.2.5 Chrome/120.0.6099.109 Electron/28.1.0 Safari/537.36" etag="ENc5kKugXrJ_z63aTylq" version="24.2.5" type="device">
  <diagram name="Strona-1" id="xCCsqhU6PNBuaq4Lg01Y">
    <mxGraphModel dx="949" dy="593" grid="1" gridSize="10" guides="1" tooltips="1" connect="1" arrows="1" fold="1" page="1" pageScale="1" pageWidth="827" pageHeight="1169" math="0" shadow="0">
      <root>
        <mxCell id="0" />
        <mxCell id="1" parent="0" />
        <mxCell id="_sNxWwQ8RkK5xqeHhf0S-3" value="" style="rounded=0;orthogonalLoop=1;jettySize=auto;html=1;exitX=0.75;exitY=0;exitDx=0;exitDy=0;startArrow=classic;startFill=1;entryX=0.5;entryY=1;entryDx=0;entryDy=0;" edge="1" parent="1" source="_sNxWwQ8RkK5xqeHhf0S-1" target="_sNxWwQ8RkK5xqeHhf0S-2">
          <mxGeometry relative="1" as="geometry" />
        </mxCell>
        <mxCell id="_sNxWwQ8RkK5xqeHhf0S-17" style="rounded=0;orthogonalLoop=1;jettySize=auto;html=1;exitX=0;exitY=0.25;exitDx=0;exitDy=0;entryX=1;entryY=0.5;entryDx=0;entryDy=0;startArrow=classic;startFill=1;" edge="1" parent="1" source="_sNxWwQ8RkK5xqeHhf0S-1" target="_sNxWwQ8RkK5xqeHhf0S-10">
          <mxGeometry relative="1" as="geometry" />
        </mxCell>
        <mxCell id="_sNxWwQ8RkK5xqeHhf0S-18" style="rounded=0;orthogonalLoop=1;jettySize=auto;html=1;exitX=0;exitY=0.75;exitDx=0;exitDy=0;entryX=1;entryY=0.5;entryDx=0;entryDy=0;startArrow=classic;startFill=1;" edge="1" parent="1" source="_sNxWwQ8RkK5xqeHhf0S-1" target="_sNxWwQ8RkK5xqeHhf0S-8">
          <mxGeometry relative="1" as="geometry" />
        </mxCell>
        <mxCell id="_sNxWwQ8RkK5xqeHhf0S-19" style="rounded=0;orthogonalLoop=1;jettySize=auto;html=1;exitX=1;exitY=0.75;exitDx=0;exitDy=0;entryX=0;entryY=0.5;entryDx=0;entryDy=0;startArrow=classic;startFill=1;" edge="1" parent="1" source="_sNxWwQ8RkK5xqeHhf0S-1" target="_sNxWwQ8RkK5xqeHhf0S-6">
          <mxGeometry relative="1" as="geometry" />
        </mxCell>
        <mxCell id="_sNxWwQ8RkK5xqeHhf0S-1" value="&lt;b&gt;Uświadomiona Jakość&lt;br&gt;Konsumencka&lt;/b&gt;" style="rounded=1;whiteSpace=wrap;html=1;" vertex="1" parent="1">
          <mxGeometry x="200" y="170" width="120" height="60" as="geometry" />
        </mxCell>
        <mxCell id="_sNxWwQ8RkK5xqeHhf0S-2" value="Doświadczenia" style="whiteSpace=wrap;html=1;rounded=1;" vertex="1" parent="1">
          <mxGeometry x="360" y="90" width="120" height="40" as="geometry" />
        </mxCell>
        <mxCell id="_sNxWwQ8RkK5xqeHhf0S-6" value="Jakość wyniku" style="whiteSpace=wrap;html=1;rounded=1;" vertex="1" parent="1">
          <mxGeometry x="360" y="220" width="120" height="40" as="geometry" />
        </mxCell>
        <mxCell id="_sNxWwQ8RkK5xqeHhf0S-8" value="Jakość wykonania&lt;br&gt;i dostawy" style="whiteSpace=wrap;html=1;rounded=1;" vertex="1" parent="1">
          <mxGeometry x="40" y="220" width="120" height="40" as="geometry" />
        </mxCell>
        <mxCell id="_sNxWwQ8RkK5xqeHhf0S-10" value="Jakość projektu" style="whiteSpace=wrap;html=1;rounded=1;" vertex="1" parent="1">
          <mxGeometry x="40" y="160" width="120" height="40" as="geometry" />
        </mxCell>
        <mxCell id="_sNxWwQ8RkK5xqeHhf0S-20" style="rounded=0;orthogonalLoop=1;jettySize=auto;html=1;exitX=0.5;exitY=1;exitDx=0;exitDy=0;entryX=0.25;entryY=0;entryDx=0;entryDy=0;startArrow=classic;startFill=1;" edge="1" parent="1" source="_sNxWwQ8RkK5xqeHhf0S-12" target="_sNxWwQ8RkK5xqeHhf0S-1">
          <mxGeometry relative="1" as="geometry" />
        </mxCell>
        <mxCell id="_sNxWwQ8RkK5xqeHhf0S-21" style="rounded=0;orthogonalLoop=1;jettySize=auto;html=1;exitX=0.5;exitY=0;exitDx=0;exitDy=0;entryX=0;entryY=0.5;entryDx=0;entryDy=0;startArrow=classic;startFill=1;" edge="1" parent="1" source="_sNxWwQ8RkK5xqeHhf0S-12" target="_sNxWwQ8RkK5xqeHhf0S-14">
          <mxGeometry relative="1" as="geometry" />
        </mxCell>
        <mxCell id="_sNxWwQ8RkK5xqeHhf0S-12" value="Oczekiwania" style="whiteSpace=wrap;html=1;rounded=1;" vertex="1" parent="1">
          <mxGeometry x="40" y="90" width="120" height="40" as="geometry" />
        </mxCell>
        <mxCell id="_sNxWwQ8RkK5xqeHhf0S-22" style="rounded=0;orthogonalLoop=1;jettySize=auto;html=1;exitX=1;exitY=0.5;exitDx=0;exitDy=0;entryX=0.5;entryY=0;entryDx=0;entryDy=0;startArrow=classic;startFill=1;" edge="1" parent="1" source="_sNxWwQ8RkK5xqeHhf0S-14" target="_sNxWwQ8RkK5xqeHhf0S-2">
          <mxGeometry relative="1" as="geometry" />
        </mxCell>
        <mxCell id="_sNxWwQ8RkK5xqeHhf0S-23" style="edgeStyle=orthogonalEdgeStyle;rounded=0;orthogonalLoop=1;jettySize=auto;html=1;exitX=0.5;exitY=1;exitDx=0;exitDy=0;entryX=0.5;entryY=0;entryDx=0;entryDy=0;shape=flexArrow;startArrow=block;" edge="1" parent="1" source="_sNxWwQ8RkK5xqeHhf0S-14" target="_sNxWwQ8RkK5xqeHhf0S-1">
          <mxGeometry relative="1" as="geometry" />
        </mxCell>
        <mxCell id="_sNxWwQ8RkK5xqeHhf0S-14" value="Wizerunek" style="whiteSpace=wrap;html=1;rounded=1;" vertex="1" parent="1">
          <mxGeometry x="200" y="40" width="120" height="40" as="geometry" />
        </mxCell>
        <mxCell id="_sNxWwQ8RkK5xqeHhf0S-16" value="" style="rounded=0;orthogonalLoop=1;jettySize=auto;html=1;exitX=1;exitY=0.25;exitDx=0;exitDy=0;startArrow=classic;startFill=1;" edge="1" parent="1" source="_sNxWwQ8RkK5xqeHhf0S-1" target="_sNxWwQ8RkK5xqeHhf0S-4">
          <mxGeometry relative="1" as="geometry">
            <mxPoint x="320" y="200" as="sourcePoint" />
            <mxPoint x="420" y="130" as="targetPoint" />
          </mxGeometry>
        </mxCell>
        <mxCell id="_sNxWwQ8RkK5xqeHhf0S-4" value="Jakość relacji" style="whiteSpace=wrap;html=1;rounded=1;" vertex="1" parent="1">
          <mxGeometry x="360" y="160" width="120" height="40" as="geometry" />
        </mxCell>
      </root>
    </mxGraphModel>
  </diagram>
</mxfile>
